<?xml version="1.0" standalone="no"?><!DOCTYPE svg PUBLIC "-//W3C//DTD SVG 1.1//EN" "http://www.w3.org/Graphics/SVG/1.1/DTD/svg11.dtd"><svg t="1563101275197" class="icon" viewBox="0 0 1025 1024" version="1.1" xmlns="http://www.w3.org/2000/svg" p-id="4468" xmlns:xlink="http://www.w3.org/1999/xlink" width="128.125" height="128"><defs><style type="text/css"></style></defs><path d="M862.208 987.5456H186.9824c-99.5328 0-186.9824-83.1488-186.9824-178.176V284.2624c0-94.6176 82.7392-174.4896 180.6336-174.4896 12.9024 0.6144 23.1424 11.4688 23.1424 24.3712 0 12.9024-10.24 23.7568-23.1424 24.3712-71.4752 0-131.8912 57.5488-131.8912 125.7472v525.1072c0 67.7888 65.7408 129.4336 138.24 129.4336h675.2256c73.5232 0 113.2544-66.7648 113.2544-129.4336V284.2624c0-70.4512-53.8624-125.7472-122.4704-125.7472-12.6976-1.024-22.3232-11.6736-22.3232-24.3712s9.6256-23.1424 22.3232-24.3712c96.0512 0 171.2128 76.5952 171.2128 174.4896v525.1072c-0.2048 101.5808-69.8368 178.176-161.9968 178.176z m0 0" p-id="4469" fill="#B6B196"></path><path d="M292.6592 451.1744h-73.1136c-12.6976-1.024-22.7328-11.6736-22.7328-24.3712 0-12.9024 9.8304-23.552 22.7328-24.3712h73.1136c12.6976 1.024 22.7328 11.6736 22.7328 24.3712s-10.0352 23.3472-22.7328 24.3712z m243.712 0h-73.1136c-12.6976-1.024-22.7328-11.6736-22.7328-24.3712 0-12.9024 9.8304-23.552 22.7328-24.3712h73.1136c13.5168 0 24.3712 10.8544 24.3712 24.3712 0.2048 13.312-10.8544 24.3712-24.3712 24.3712z m268.288 0h-73.3184c-12.6976-1.024-22.7328-11.6736-22.7328-24.3712 0-12.9024 9.8304-23.552 22.7328-24.3712h73.3184c13.5168 0 24.3712 10.8544 24.3712 24.3712 0 13.5168-10.8544 24.3712-24.3712 24.3712z m-512 146.2272h-73.1136c-13.5168 0-24.3712-10.8544-24.3712-24.3712 0-13.5168 10.8544-24.3712 24.3712-24.3712h73.1136c12.6976 1.024 22.7328 11.6736 22.7328 24.3712 0 12.9024-10.0352 23.552-22.7328 24.3712z m243.712 0h-73.1136c-13.5168 0-24.3712-10.8544-24.3712-24.3712 0-13.5168 10.8544-24.3712 24.3712-24.3712h73.1136c13.5168 0 24.3712 10.8544 24.3712 24.3712 0.2048 13.5168-10.8544 24.3712-24.3712 24.3712z m268.288 0h-73.3184c-13.5168 0-24.3712-10.8544-24.3712-24.3712 0-13.5168 10.8544-24.3712 24.3712-24.3712h73.3184c13.5168 0 24.3712 10.8544 24.3712 24.3712 0 13.5168-10.8544 24.3712-24.3712 24.3712z m-512 146.2272h-73.1136c-13.5168 0-24.3712-10.8544-24.3712-24.3712 0-13.5168 10.8544-24.3712 24.3712-24.3712h73.1136c12.6976 1.024 22.7328 11.6736 22.7328 24.3712 0 12.9024-10.0352 23.552-22.7328 24.3712z m243.712 0h-73.1136c-8.8064 0-16.7936-4.7104-21.0944-12.288-4.3008-7.5776-4.3008-16.7936 0-24.3712 4.3008-7.5776 12.4928-12.288 21.0944-12.288h73.1136c13.5168 0 24.3712 10.8544 24.3712 24.3712 0.2048 13.7216-10.8544 24.576-24.3712 24.576z m268.288 0h-73.3184c-13.5168 0-24.3712-10.8544-24.3712-24.3712 0-13.5168 10.8544-24.3712 24.3712-24.3712h73.3184c13.5168 0 24.3712 10.8544 24.3712 24.3712 0 13.5168-10.8544 24.3712-24.3712 24.3712zM829.0304 158.5152H170.5984c-13.5168 0-24.3712-10.8544-24.3712-24.3712 0-13.5168 10.8544-24.3712 24.3712-24.3712H829.0304c13.5168 0 24.3712 10.8544 24.3712 24.3712 0 13.5168-11.0592 24.3712-24.3712 24.3712z m0 0" p-id="4470" fill="#B6B196"></path><path d="M292.6592 231.6288c-13.5168 0-24.3712-10.8544-24.3712-24.3712V61.0304c1.024-12.6976 11.6736-22.7328 24.3712-22.7328 12.9024 0 23.552 9.8304 24.3712 22.7328v146.2272c0 13.5168-10.8544 24.3712-24.3712 24.3712z m438.6816 0c-13.5168 0-24.3712-10.8544-24.3712-24.3712V61.0304c1.024-12.6976 11.6736-22.7328 24.3712-22.7328 12.9024 0 23.552 9.8304 24.3712 22.7328v146.2272c0.2048 13.5168-10.6496 24.3712-24.3712 24.3712z m0 0" p-id="4471" fill="#B6B196"></path></svg>