<?xml version="1.0" standalone="no"?><!DOCTYPE svg PUBLIC "-//W3C//DTD SVG 1.1//EN" "http://www.w3.org/Graphics/SVG/1.1/DTD/svg11.dtd"><svg t="1546676810149" class="icon" style="" viewBox="0 0 1024 1024" version="1.1" xmlns="http://www.w3.org/2000/svg" p-id="1079" xmlns:xlink="http://www.w3.org/1999/xlink" width="64" height="64"><defs><style type="text/css"></style></defs><path d="M489.947 197.583l-9.213 98.428C321.361 331.149 241.53 396.727 241.53 492.869c0 27.465 25.609 57.222 76.71 89.27 50.332 32.05 75.541 71.762 75.541 119.033 0 42.001-13.366 75.536-40.09 100.775-26.665 25.123-61.775 37.71-105.236 37.71-51.163 0-94.453-17.74-129.933-53.22-35.509-35.479-53.194-81.832-53.194-139.059 0-112.85 36.283-208.989 108.702-288.42 72.478-79.314 177.8-133.107 315.918-161.375m468.082 0l-9.13 98.428c-159.46 35.936-239.205 101.519-239.205 196.858 0 27.465 25.551 57.222 76.627 89.27 50.414 32.05 75.536 71.762 75.536 119.033 0 42.001-13.133 75.536-39.483 100.775-26.324 25.123-61.55 37.71-105.842 37.71-51.846 0-95.166-17.74-129.9-53.22-34.71-35.479-52.107-81.832-52.107-139.059 0-114.452 36.282-211.165 108.76-290.139 72.506-78.968 177.4-132.191 314.744-159.656" fill="#D5D5D5" p-id="1080"></path></svg>