<?xml version="1.0" standalone="no"?><!DOCTYPE svg PUBLIC "-//W3C//DTD SVG 1.1//EN" "http://www.w3.org/Graphics/SVG/1.1/DTD/svg11.dtd"><svg t="1563598830951" class="icon" viewBox="0 0 1024 1024" version="1.1" xmlns="http://www.w3.org/2000/svg" p-id="1269" xmlns:xlink="http://www.w3.org/1999/xlink" width="128" height="128"><defs><style type="text/css"></style></defs><path d="M890.335 330.911c-12.576-12.416-32.8-12.353-45.248 0.193L517.248 661.95 184.832 332.513c-12.576-12.448-32.8-12.353-45.28 0.192-12.448 12.577-12.354 32.832 0.192 45.281l353.311 350.112c0.544 0.544 1.248 0.673 1.793 1.184 0.127 0.127 0.16 0.287 0.287 0.416a31.972 31.972 0 0 0 22.528 9.28c8.224 0 16.48-3.168 22.72-9.47l350.112-353.313c12.48-12.58 12.386-32.835-0.16-45.284z" p-id="1270" fill="#ffffff"></path></svg>