<?xml version="1.0" standalone="no"?><!DOCTYPE svg PUBLIC "-//W3C//DTD SVG 1.1//EN" "http://www.w3.org/Graphics/SVG/1.1/DTD/svg11.dtd"><svg t="1549158580832" class="icon" style="" viewBox="0 0 1024 1024" version="1.1" xmlns="http://www.w3.org/2000/svg" p-id="10316" xmlns:xlink="http://www.w3.org/1999/xlink" width="128" height="128"><defs><style type="text/css"></style></defs><path d="M945.003 780.235c0 0-8.865 2.51-13.365-8.894l-75.020-203.895c42.337-30.091 70.564-83.989 70.564-145.491 0-94.368-66.418-170.866-148.356-170.866-97.074-3.631-154.921 80.438-144.499 168.902 3.142 61.588 29.634 124.49 73.834 154.828l-61.666 143.15c-21.292 40.745-40.101 53.374-40.101 53.374-42.775 24.121-75.739-8.895-75.739-8.895l13.363-17.791 17.824 8.898c38.949 13.511 57.921-40.028 57.921-40.028l58.27-132.963c-40.112-37.591-64.014-99.601-67.178-160.582-12.055-100.172 54.83-195.367 167.075-191.249 94.735 0 171.531 86.62 171.531 193.471 0 61.143-25.206 115.573-64.475 151.021l68.929 189.229c-0.001 0.001 7.817 15.605-8.908 17.788v0zM486.092 775.795c-45.678 20.43-71.286-26.689-71.286-26.689l-77.47-172.934c42.996-34.339 68.332-96.607 73.014-151.746 8.118-87.695-36.481-173.455-150.962-173.455-81.486 0-143.093 77.658-143.093 173.455 0 62.93 26.623 118.371 67.963 150.046l-59.052 196.874c-3.463 11.45-13.366 8.894-13.366 8.894-10.43-0.089-8.913-13.342-8.913-13.342l54.082-186.864c-38.353-37.095-62.99-93.667-62.99-155.609 0-108.079 74.802-195.696 167.077-195.696 129.638 0 181.35 104.548 171.534 195.696-4.881 62.789-31.828 121.311-72.113 158.663l76.573 157.123c14.781 21.034 40.097 13.344 40.097 13.344 26.775-6.234 40.099-31.132 40.099-31.132 21.413-27.474 13.367-57.822 13.367-57.822-10.005-13.228-17.822 0-17.822 0-13.402 18.157 0 48.93 0 48.93l-13.366 17.788c-14.422-21.414-13.366-48.926-13.366-48.926-0.561-55.247 40.1-48.929 40.1-48.929 49.524 19.146 22.275 84.507 22.275 84.507-24.727 46.793-62.38 57.824-62.38 57.824v0zM207.63 344.366c11.073 0 20.053 8.962 20.053 20.014s-8.977 20.014-20.053 20.014c-11.074 0-20.051-8.962-20.051-20.014 0-11.054 8.976-20.014 20.051-20.014v0zM323.474 384.394c-11.074 0-20.053-8.962-20.053-20.014s8.976-20.014 20.053-20.014c11.067 0 20.044 8.962 20.044 20.014 0 11.054-8.976 20.014-20.044 20.014v0zM209.859 411.083h115.836c6.975 0 12.946 4.031 15.878 9.857 1.234 5.42 1.945 11.037 1.945 16.831 0 41.758-33.908 75.607-75.738 75.607-41.831 0-75.739-33.847-75.739-75.607 0-5.793 0.711-11.411 1.946-16.831 2.93-5.824 8.902-9.857 15.872-9.857v0zM267.779 491.141c54.45-1.461 53.465-57.821 53.465-57.821h-106.928c0.717 62.918 53.465 57.821 53.465 57.821v0zM699.954 366.604c0-9.826 7.978-17.789 17.822-17.789 9.841 0 17.824 7.963 17.824 17.789 0 9.827-7.981 17.789-17.824 17.789-9.842 0-17.822-7.963-17.822-17.789v0zM833.615 384.394c-9.841 0-17.822-7.963-17.822-17.789s7.98-17.789 17.822-17.789c9.845 0 17.821 7.963 17.821 17.789 0 9.826-7.974 17.789-17.821 17.789v0zM704.409 415.532c8.822-8.851 17.821 0 17.821 0 19.029 37.987 57.922 35.579 57.922 35.579 49.045-3.659 53.465-35.579 53.465-35.579 3.555-11.807 13.366-8.899 13.366-8.899 13.54 4.206 8.912 17.79 8.912 17.79-21.109 51.968-75.744 48.926-75.744 48.926-46.95 1.27-75.742-40.029-75.742-40.029-7.668-8.364 0-17.788 0-17.788v0z" p-id="10317" fill="#B6B196"></path></svg>