<?xml version="1.0" standalone="no"?><!DOCTYPE svg PUBLIC "-//W3C//DTD SVG 1.1//EN" "http://www.w3.org/Graphics/SVG/1.1/DTD/svg11.dtd"><svg t="1563592224000" class="icon" viewBox="0 0 1024 1024" version="1.1" xmlns="http://www.w3.org/2000/svg" p-id="1040" xmlns:xlink="http://www.w3.org/1999/xlink" width="128" height="128"><defs><style type="text/css"></style></defs><path d="M921.6 454.656H223.232c-83.968 0-151.552-75.776-151.552-167.936s67.584-167.936 151.552-167.936H921.6c16.384 0 30.72 14.336 30.72 30.72v6.144c0 12.288-8.192 24.576-20.48 28.672-40.96 14.336-69.632 53.248-69.632 100.352 0 45.056 28.672 88.064 69.632 100.352 12.288 4.096 20.48 16.384 20.48 28.672v6.144c0 22.528-14.336 34.816-30.72 34.816zM223.232 182.272c-49.152 0-90.112 47.104-90.112 106.496s40.96 106.496 90.112 106.496h612.352c-22.528-28.672-34.816-65.536-34.816-106.496 0-38.912 12.288-75.776 34.816-106.496H223.232zM800.768 903.168H102.4c-16.384 0-30.72-14.336-30.72-30.72v-6.144c0-14.336 8.192-24.576 20.48-28.672 40.96-14.336 69.632-55.296 69.632-100.352 0-47.104-28.672-88.064-69.632-100.352-12.288-4.096-20.48-16.384-20.48-28.672v-6.144c0-16.384 14.336-30.72 30.72-30.72h698.368c83.968 0 151.552 75.776 151.552 167.936s-67.584 163.84-151.552 163.84z m-612.352-61.44h612.352c49.152 0 90.112-47.104 90.112-106.496s-40.96-106.496-90.112-106.496H188.416c22.528 28.672 34.816 65.536 34.816 106.496 0 38.912-12.288 75.776-34.816 106.496z" p-id="1041" fill="#444444"></path></svg>