<?xml version="1.0" standalone="no"?><!DOCTYPE svg PUBLIC "-//W3C//DTD SVG 1.1//EN" "http://www.w3.org/Graphics/SVG/1.1/DTD/svg11.dtd"><svg t="1563526557258" class="icon" viewBox="0 0 1024 1024" version="1.1" xmlns="http://www.w3.org/2000/svg" p-id="3098" xmlns:xlink="http://www.w3.org/1999/xlink" width="128" height="128"><defs><style type="text/css"></style></defs><path d="M512 1023.926857a512 512 0 1 1 0-1024 512 512 0 0 1 0 1024z m-25.6-179.126857h51.2s46.372571 5.558857 51.2-25.673143c3.510857-22.893714-25.6-409.6-25.6-409.6s-8.777143-27.940571-25.6-25.526857H512s-47.396571-8.192-51.2 25.526857l-25.6 409.6s4.022857 27.209143 51.2 25.673143zM512 153.088c-42.934857 0-77.750857 34.304-77.750857 76.580571S469.065143 306.249143 512 306.249143s77.677714-34.304 77.677714-76.580572S554.934857 153.088 512 153.088z" fill="#7991D1" p-id="3099"></path></svg>