<?xml version="1.0" standalone="no"?><!DOCTYPE svg PUBLIC "-//W3C//DTD SVG 1.1//EN" "http://www.w3.org/Graphics/SVG/1.1/DTD/svg11.dtd"><svg t="1562944210621" class="icon" viewBox="0 0 1024 1024" version="1.1" xmlns="http://www.w3.org/2000/svg" p-id="3384" xmlns:xlink="http://www.w3.org/1999/xlink" width="128" height="128"><defs><style type="text/css"></style></defs><path d="M709.595822 906.319787c4.941546 0 9.884115-1.339508 14.258749-3.963265a28.02938 28.02938 0 0 0 13.743002-24.140816V737.544873c134.932132-33.406854 224.003773-143.694703 224.003773-280.995789v-52.706409c0-158.891823-130.325208-288.13642-290.505373-288.13642h-315.004347c-160.179143 0-290.505373 129.244596-290.505373 288.13642v52.706409c0 165.686577 133.028782 305.702494 290.505373 305.702493h84.695984c0 0.001023 264.175705 144.06821 268.808212 144.06821z m-28.000727-75.613118V714.743564c0-13.640672 9.780761-25.324782 23.162535-27.691689C826.771545 665.588027 905.598868 575.140039 905.598868 456.550107v-52.706409c0-127.880529-105.181551-231.930303-234.502895-231.930303h-315.004347c-129.322367 0-234.503918 104.049774-234.503918 231.930303v52.706409c0 132.898823 109.582791 249.494331 234.503918 249.494331h91.876524c4.709255-0.001023 233.626945 124.662231 233.626945 124.662231z m42.825364-346.053504c-29.106922 0-52.706409-23.600511-52.706409-52.707432s23.599488-52.706409 52.706409-52.706409c29.105898 0 52.706409 23.599488 52.706409 52.706409s-23.600511 52.707432-52.706409 52.707432z m-210.827683 0c-29.106922 0-52.706409-23.600511-52.706409-52.707432s23.600511-52.706409 52.706409-52.706409c29.106922 0 52.706409 23.599488 52.706409 52.706409s-23.598464 52.707432-52.706409 52.707432z m-210.825636 0c-29.106922 0-52.706409-23.600511-52.706409-52.707432s23.599488-52.706409 52.706409-52.706409 52.706409 23.599488 52.706409 52.706409-23.600511 52.707432-52.706409 52.707432z" fill="#999999" p-id="3385"></path></svg>