<?xml version="1.0" standalone="no"?><!DOCTYPE svg PUBLIC "-//W3C//DTD SVG 1.1//EN" "http://www.w3.org/Graphics/SVG/1.1/DTD/svg11.dtd"><svg t="1564132235514" class="icon" viewBox="0 0 1024 1024" version="1.1" xmlns="http://www.w3.org/2000/svg" p-id="2630" xmlns:xlink="http://www.w3.org/1999/xlink" width="128" height="128"><defs><style type="text/css"></style></defs><path d="M989.866667 1024c-10.24 0-17.066667-3.413333-23.893334-10.24l-232.106666-238.933333c-13.653333-13.653333-13.653333-34.133333 0-47.786667 68.266667-71.68 109.226667-170.666667 109.226666-269.653333C843.093333 242.346667 669.013333 68.266667 457.386667 68.266667S68.266667 242.346667 68.266667 457.386667s174.08 389.12 385.706666 389.12c51.2 0 98.986667-10.24 143.36-27.306667 17.066667-6.826667 37.546667 0 44.373334 17.066667 6.826667 17.066667 0 37.546667-17.066667 44.373333-54.613333 20.48-112.64 34.133333-170.666667 34.133333C204.8 914.773333 0 709.973333 0 457.386667S204.8 0 453.973333 0s453.973333 204.8 453.973334 457.386667c0 109.226667-37.546667 211.626667-105.813334 293.546666l208.213334 215.04c13.653333 13.653333 13.653333 34.133333 0 47.786667-3.413333 6.826667-10.24 10.24-20.48 10.24z" fill="#444444" p-id="2631"></path></svg>