<?xml version="1.0" standalone="no"?><!DOCTYPE svg PUBLIC "-//W3C//DTD SVG 1.1//EN" "http://www.w3.org/Graphics/SVG/1.1/DTD/svg11.dtd"><svg t="1563097141612" class="icon" viewBox="0 0 1024 1024" version="1.1" xmlns="http://www.w3.org/2000/svg" p-id="4439" xmlns:xlink="http://www.w3.org/1999/xlink" width="128" height="128"><defs><style type="text/css"></style></defs><path d="M453.269333 135.573333a306.688 306.688 0 0 0-223.232 95.210667 32 32 0 0 0 46.208 44.309333 243.264 243.264 0 0 1 177.045334-75.52c44.074667 0 87.296 11.818667 124.949333 34.154667a32 32 0 0 0 32.682667-55.04 309.248 309.248 0 0 0-157.653334-43.114667z" p-id="4440" fill="#ffffff"></path><path d="M1014.229333 960.64L784.021333 730.453333a433.770667 433.770667 0 0 0 106.581334-285.546666c0-241.152-196.181333-437.333333-437.333334-437.333334s-437.333333 196.181333-437.333333 437.333334 196.181333 437.333333 437.333333 437.333333c65.706667 0 128.896-14.229333 187.818667-42.261333a32 32 0 0 0-27.498667-57.792 369.92 369.92 0 0 1-160.32 36.053333c-205.845333 0-373.333333-167.488-373.333333-373.333333s167.466667-373.333333 373.333333-373.333334 373.333333 167.488 373.333334 373.333334c0 99.712-38.826667 193.450667-109.290667 263.936l-0.085333 0.064a32 32 0 0 0 0 45.248l251.754666 251.733333c6.250667 6.250667 14.442667 9.365333 22.634667 9.365333s16.384-3.114667 22.634667-9.365333a32 32 0 0 0-0.021334-45.248z" p-id="4441" fill="#ffffff"></path></svg>