<?xml version="1.0" standalone="no"?><!DOCTYPE svg PUBLIC "-//W3C//DTD SVG 1.1//EN" "http://www.w3.org/Graphics/SVG/1.1/DTD/svg11.dtd"><svg t="1563528042971" class="icon" viewBox="0 0 1118 1024" version="1.1" xmlns="http://www.w3.org/2000/svg" p-id="5782" xmlns:xlink="http://www.w3.org/1999/xlink" width="139.75" height="128"><defs><style type="text/css"></style></defs><path d="M1094.325062 828.509091L656.797789 69.818182c-55.854545-93.090909-139.636364-93.090909-195.490909 0L23.779607 828.509091c-55.854545 93.090909-9.309091 167.563636 97.745455 167.563636h875.054545c107.054545 0 153.6-74.472727 97.745455-167.563636zM498.543244 283.927273c13.963636-18.618182 37.236364-23.272727 60.509091-23.272728s46.545455 9.309091 60.50909 23.272728c13.963636 18.618182 23.272727 37.236364 23.272728 65.163636 0 23.272727-32.581818 181.527273-41.890909 297.890909h-79.127273c-9.309091-116.363636-46.545455-274.618182-46.545455-297.890909 0-27.927273 9.309091-46.545455 23.272728-65.163636zM619.561425 837.818182c-18.618182 13.963636-37.236364 23.272727-60.50909 23.272727s-41.890909-9.309091-60.509091-23.272727-23.272727-37.236364-23.272728-60.509091 9.309091-41.890909 23.272728-60.509091c18.618182-18.618182 37.236364-23.272727 60.509091-23.272727s41.890909 9.309091 60.50909 23.272727c18.618182 18.618182 23.272727 37.236364 23.272728 60.509091s-9.309091 46.545455-23.272728 60.509091z" fill="#B80233" p-id="5783" data-spm-anchor-id="a313x.7781069.0.i8" class="selected"></path></svg>